<svg width="960" height="960" viewBox="0 0 960 960" fill="none" xmlns="http://www.w3.org/2000/svg">
<g clip-path="url(#clip0_583_1230)">
<path d="M779.942 550.627C764.861 537.527 695.186 518.827 695.186 518.827H695.175L704.588 500.975L731.728 509.038L769.7 520.318L790.722 526.562L779.942 550.627Z" fill="white" fill-opacity="0.96"/>
<path d="M695.186 518.822C695.186 518.822 764.861 537.522 779.942 550.622L762.665 589.2L761.995 590.644C733.195 577.539 696.43 579.432 658.079 589.2L660.233 585.122V585.111L695.175 518.824L695.186 518.822Z" fill="white" fill-opacity="0.96"/>
<path d="M480.167 911.439C237.161 911.439 40.167 860.861 40.167 798.465C40.167 775.498 66.847 754.141 112.676 736.309L113.816 735.222C161.434 786.197 283.047 789.622 283.047 789.622L285.647 790.26C284.507 795.04 285.992 799.809 291.17 804.39C313.551 824.167 363.459 800.28 390.955 784.466C394.72 784.644 454.533 787.436 528.099 784.006C535.922 788.587 607.888 829.857 626.012 809.264C645.183 787.478 620.072 776.8 620.072 776.8L620.02 776.371C690.479 767.481 758.366 750.591 792.231 719.121L794.323 719.361C872.166 739.735 920.161 767.661 920.161 798.461C920.161 860.861 723.163 911.439 480.167 911.439Z" fill="white" fill-opacity="0.96"/>
<path d="M326.373 642.034C305.764 632.589 284.623 624.351 263.057 617.362L263.357 616.39C267.593 562.957 287.15 527.962 310.515 505.068C352.339 464.068 406.337 461.843 406.337 461.843C406.337 461.843 406.577 462.816 407.069 464.531C409.156 471.739 411.656 478.82 414.557 485.741H414.568C424.127 508.499 442.293 538.85 470.312 535.419C499.812 531.819 515.336 498.072 522.427 475.919C524.435 469.619 525.764 464.258 526.538 460.796H526.548C527.134 458.15 527.406 456.613 527.406 456.613C527.406 456.613 592.6 437.599 632.549 498.553C645.371 518.1 655.579 545.853 660.233 585.108V585.119L658.079 589.197C635.791 594.876 612.96 603.212 590.851 612.813C509.65 648.048 438.082 700.299 438.082 700.299C436.837 701.544 387.41 669.614 326.373 642.034Z" fill="white" fill-opacity="0.96"/>
<path d="M238.876 556.348L263.36 616.391L263.06 617.363C230.575 607.03 198.227 600.943 170.647 603.84L162.3 572.81C162.3 572.81 213.192 558.774 237.414 556.944L238.876 556.348Z" fill="white" fill-opacity="0.96"/>
<path d="M220.982 542.599L232.35 540.35L238.876 556.35L237.412 556.95C213.19 558.773 162.3 572.809 162.3 572.809L157.542 555.109L181.889 550.298L220.982 542.599Z" fill="white" fill-opacity="0.96"/>
<path d="M526.551 460.799C527.137 458.153 527.409 456.616 527.409 456.616C527.409 456.616 592.6 437.599 632.549 498.553C645.371 518.1 655.579 545.853 660.233 585.108" stroke="#171717" stroke-width="3" stroke-linecap="round" stroke-linejoin="round"/>
<path d="M414.571 485.742C424.13 508.5 442.296 538.851 470.315 535.42C499.815 531.82 515.339 498.073 522.43 475.92C524.438 469.62 525.767 464.259 526.541 460.797" stroke="#171717" stroke-width="3" stroke-linecap="round" stroke-linejoin="round"/>
<path d="M170.644 603.84L162.3 572.81L157.542 555.11L181.889 550.299L220.989 542.591L232.357 540.342L238.883 556.342L263.367 616.385C267.603 562.952 287.16 527.957 310.525 505.063C352.349 464.063 406.347 461.838 406.347 461.838C406.347 461.838 406.587 462.811 407.079 464.526C409.167 471.733 411.667 478.815 414.567 485.736" stroke="#171717" stroke-width="3" stroke-linecap="round" stroke-linejoin="round"/>
<path d="M390.767 784.461C390.767 784.461 390.83 784.461 390.955 784.471C394.72 784.649 454.533 787.441 528.099 784.011C557.446 782.641 588.979 780.277 620.02 776.376C690.479 767.486 758.366 750.596 792.231 719.126C813.131 699.726 821.076 674.76 808.683 642.715C798.483 616.359 782.201 599.815 761.995 590.642C733.195 577.537 696.43 579.43 658.079 589.198C635.791 594.877 612.96 603.213 590.851 612.814C509.65 648.049 438.082 700.3 438.082 700.3C436.837 701.545 387.41 669.615 326.373 642.035C305.764 632.59 284.623 624.352 263.057 617.363C230.572 607.03 198.224 600.943 170.644 603.84C140.775 606.968 116.479 620.64 103.657 650.84C87.8647 688.021 95.1647 715.266 113.812 735.221C161.43 786.196 283.043 789.621 283.043 789.621" stroke="#171717" stroke-width="3" stroke-linecap="round" stroke-linejoin="round"/>
<path d="M390.955 784.471C402.455 777.851 410.032 772.653 410.032 772.653C410.032 772.653 410.764 732.042 366.472 740.901C366.472 740.901 291.504 765.719 285.647 790.265C284.507 795.045 285.992 799.814 291.17 804.395C313.551 824.172 363.459 800.285 390.955 784.471Z" stroke="#171717" stroke-width="3" stroke-linecap="round" stroke-linejoin="round"/>
<path d="M527.409 783.599C527.409 783.599 527.649 783.746 528.099 784.007C535.922 788.588 607.888 829.858 626.012 809.265C645.183 787.479 620.072 776.801 620.072 776.801" stroke="#171717" stroke-width="3" stroke-linecap="round" stroke-linejoin="round"/>
<path d="M194.616 510.141C194.5 508.699 192.785 484.287 207 479.989C221.663 475.565 238.271 482.889 235.342 489.889C232.413 496.889 222.311 494.689 211.56 493.215C200.809 491.741 205.044 516.098 205.044 516.098C205.044 516.098 208.955 533.815 218.399 525.698C227.843 517.581 221.035 500.231 230.145 499.489C239.255 498.747 239.087 508.713 233.606 517.572C229.747 523.816 222.342 539.65 220.983 542.589C220.826 542.903 220.753 543.07 220.753 543.07" stroke="#171717" stroke-width="3" stroke-linecap="round" stroke-linejoin="round"/>
<path d="M178.656 510.937C178.654 510.922 178.65 510.908 178.645 510.895C178.269 509.253 165.771 454.429 174.43 452.243C183.059 450.078 194.208 508.008 194.616 510.143C194.621 510.163 194.625 510.184 194.626 510.205" stroke="#171717" stroke-width="3" stroke-linecap="round" stroke-linejoin="round"/>
<path d="M181.427 547.97C181.427 547.97 135.985 468.84 148.043 461.832C159.903 454.94 178.06 509.147 178.643 510.894" stroke="#171717" stroke-width="3" stroke-linecap="round" stroke-linejoin="round"/>
<path d="M764.15 479.267C764.151 479.259 764.154 479.251 764.16 479.246C764.16 479.236 764.171 479.215 764.171 479.204V479.194C764.571 477.709 770.707 454.124 757.55 447.294C743.965 440.234 726.279 444.366 727.869 451.802C729.459 459.238 739.792 458.924 750.627 459.447C761.462 459.97 752.813 483.147 752.813 483.147C752.813 483.147 745.701 499.839 737.92 490.112C730.139 480.385 740.02 464.593 731.22 462.188C722.42 459.783 720.72 469.614 724.474 479.33C727.402 486.891 732.412 506.752 732.412 506.752" stroke="#171717" stroke-width="3" stroke-linecap="round" stroke-linejoin="round"/>
<path d="M770.143 518.822C770.143 518.822 829.401 449.429 818.843 440.322C808.285 431.215 779.7 482.939 779.7 482.939C779.7 482.939 802.918 429.83 794.677 426.034C786.613 422.31 765.077 476.915 764.169 479.195" stroke="#171717" stroke-width="3" stroke-linecap="round" stroke-linejoin="round"/>
<path d="M658.079 589.197L660.233 585.119V585.108L695.175 518.821L704.588 500.969L731.728 509.032L769.703 520.317L790.725 526.561L779.942 550.626L762.665 589.197" stroke="#171717" stroke-width="3" stroke-linecap="round" stroke-linejoin="round"/>
<path d="M390.1 467.994C390.1 467.994 412.24 563.481 472.785 556.588C533.33 549.695 544.144 459.135 544.144 459.135" stroke="#171717" stroke-width="3" stroke-linecap="round" stroke-linejoin="round"/>
<path d="M573.552 561.137L590.851 612.813" stroke="#171717" stroke-width="3" stroke-linecap="round" stroke-linejoin="round"/>
<path d="M348.389 578.123L326.373 642.035" stroke="#171717" stroke-width="3" stroke-linecap="round" stroke-linejoin="round"/>
<path d="M407.072 464.531L445.654 453.957L446.198 453.811" stroke="#171717" stroke-width="3" stroke-linecap="round" stroke-linejoin="round"/>
<path d="M488.283 444.869L526.541 460.797H526.551" stroke="#171717" stroke-width="3" stroke-linecap="round" stroke-linejoin="round"/>
<path d="M522.43 475.921C522.43 475.921 500.091 472.271 494.558 475.921C489.025 479.571 490.5 488.053 490.5 488.053" stroke="#171717" stroke-width="3" stroke-linecap="round" stroke-linejoin="round"/>
<path d="M414.56 485.742H414.571C415.282 485.616 446.992 480.335 451.741 483.253C454.677 485.115 456.99 487.813 458.382 491" stroke="#171717" stroke-width="3" stroke-linecap="round" stroke-linejoin="round"/>
<path d="M488.283 449.293C488.283 449.293 488.063 447.609 487.823 444.9C487.049 436.031 486.129 416.149 492.341 407.95C500.467 397.25 540.702 335.973 501.941 298.689" stroke="#171717" stroke-width="3" stroke-linecap="round" stroke-linejoin="round"/>
<path d="M446.198 459.135L445.654 453.958L433.647 339.666" stroke="#171717" stroke-width="3" stroke-linecap="round" stroke-linejoin="round"/>
<path d="M417.039 344.833C417.039 344.833 423.67 342.678 433.354 338.924C446.512 333.886 459.333 328.007 471.737 321.324C474.614 319.745 477.437 318.103 480.167 316.408C488.994 310.939 496.786 304.935 501.89 298.65C502.839 297.486 503.718 296.267 504.525 295" stroke="#171717" stroke-width="3" stroke-linecap="round" stroke-linejoin="round"/>
<path d="M497.884 316.406H480.167" stroke="#171717" stroke-width="3" stroke-linecap="round" stroke-linejoin="round"/>
<path d="M471.737 321.32L483.849 363.29" stroke="#171717" stroke-width="3" stroke-linecap="round" stroke-linejoin="round"/>
<path d="M485.334 332.282C485.334 332.282 497.204 347.782 502.894 329.322" stroke="#171717" stroke-width="3" stroke-linecap="round" stroke-linejoin="round"/>
<path d="M446.2 339.665C446.2 339.665 456.93 354.165 463.184 338.365" stroke="#171717" stroke-width="3" stroke-linecap="round" stroke-linejoin="round"/>
<path d="M460.787 387.283C460.787 387.283 465.096 396.508 477.793 391.341" stroke="#171717" stroke-width="3" stroke-linecap="round" stroke-linejoin="round"/>
<path d="M632.549 498.553C632.549 498.553 656.238 467.753 638.521 433.053C620.804 398.353 606.037 397.253 600.127 365.135C594.217 333.017 597.481 226.335 477.793 240.123C358.105 253.911 380.256 308.042 378.771 324.284C377.286 340.526 380.256 359.718 357.122 373.994C333.988 388.27 276.852 419.802 310.522 505.071" stroke="#171717" stroke-width="3" stroke-linecap="round" stroke-linejoin="round"/>
<path d="M794.323 719.365C872.166 739.739 920.161 767.665 920.161 798.465C920.161 860.865 723.161 911.439 480.167 911.439C237.173 911.439 40.167 860.861 40.167 798.465C40.167 775.498 66.847 754.141 112.676 736.309" stroke="#171717" stroke-width="3" stroke-linecap="round" stroke-linejoin="round"/>
<path d="M695.186 518.822C695.186 518.822 764.861 537.522 779.942 550.622" stroke="#171717" stroke-width="3" stroke-linecap="round" stroke-linejoin="round"/>
<path d="M162.3 572.809C162.3 572.809 213.192 558.773 237.414 556.943" stroke="#171717" stroke-width="3" stroke-linecap="round" stroke-linejoin="round"/>
<path d="M605.956 258.699C601.249 245.299 607.541 228.941 620.012 222.15C629.912 216.759 642.175 217.197 652.095 211.85C657.098 209.06 661.234 204.943 664.048 199.953C666.862 194.963 668.244 189.293 668.043 183.568" stroke="#171717" stroke-width="3" stroke-linecap="round" stroke-linejoin="round"/>
<path d="M509.381 200.989C500.805 197.323 497.707 186.081 500.127 177.074C502.547 168.067 509.015 160.797 515.236 153.849C521.457 146.901 527.843 139.522 530.028 130.455C532.296 121.046 529.697 111.172 526.353 102.09C523.009 93.0083 518.861 84.0383 517.91 74.4073C516.959 64.7763 519.97 54.0073 528.11 48.7793" stroke="#171717" stroke-width="3" stroke-linecap="round" stroke-linejoin="round"/>
<path d="M393.277 233.198C384.162 227.298 374.253 220.269 372.177 209.612C369.845 197.666 378.256 186.627 382.368 175.171C386.722 163.041 386.249 149.701 381.046 137.909C375.843 126.117 366.308 116.776 354.413 111.814" stroke="#171717" stroke-width="3" stroke-linecap="round" stroke-linejoin="round"/>
<path d="M324.767 323.736C328.477 313.336 322.726 301.464 314.014 294.689C305.302 287.914 294.237 285.099 283.514 282.489C272.791 279.879 261.721 277.148 252.914 270.489C244.107 263.83 238.126 252.119 241.549 241.627" stroke="#171717" stroke-width="3" stroke-linecap="round" stroke-linejoin="round"/>
<path d="M714.859 354.01L726.778 337.105" stroke="#171717" stroke-width="3" stroke-linecap="round" stroke-linejoin="round"/>
<path d="M727.46 352.598L711.96 338.566" stroke="#171717" stroke-width="3" stroke-linecap="round" stroke-linejoin="round"/>
<path d="M823.364 406.382C827.789 402.265 832.81 398.841 838.257 396.225" stroke="#171717" stroke-width="3" stroke-linecap="round" stroke-linejoin="round"/>
<path d="M834.534 412.377L825.844 388.691" stroke="#171717" stroke-width="3" stroke-linecap="round" stroke-linejoin="round"/>
<path d="M233.708 399.008L223.508 384.15" stroke="#171717" stroke-width="3" stroke-linecap="round" stroke-linejoin="round"/>
<path d="M219.518 397.569L234.254 384.984" stroke="#171717" stroke-width="3" stroke-linecap="round" stroke-linejoin="round"/>
<path d="M105.186 497.237L93.0762 481.221" stroke="#171717" stroke-width="3" stroke-linecap="round" stroke-linejoin="round"/>
<path d="M91.2109 495.9L103.828 481.934" stroke="#171717" stroke-width="3" stroke-linecap="round" stroke-linejoin="round"/>
<path d="M146.108 388.207L141.615 377.898" stroke="#171717" stroke-width="3" stroke-linecap="round" stroke-linejoin="round"/>
<path d="M138.137 385.853L148.465 378.953" stroke="#171717" stroke-width="3" stroke-linecap="round" stroke-linejoin="round"/>
<path d="M797.811 335.657L801.452 322.357" stroke="#171717" stroke-width="3" stroke-linecap="round" stroke-linejoin="round"/>
<path d="M805.736 331.162L793.262 327.23" stroke="#171717" stroke-width="3" stroke-linecap="round" stroke-linejoin="round"/>
<path d="M609.357 509.83L601.974 500.971" stroke="#171717" stroke-width="3" stroke-linecap="round" stroke-linejoin="round"/>
<path d="M544.771 781.819C556.306 791.709 571.023 797.102 586.216 797.007C589.577 797.107 592.923 796.526 596.053 795.299C597.613 794.674 599.016 793.712 600.162 792.483C601.308 791.254 602.169 789.787 602.683 788.187C604.29 782.208 599.528 776.567 595.141 772.199" stroke="#171717" stroke-width="3" stroke-linecap="round" stroke-linejoin="round"/>
<path d="M386.07 738.211C367.447 744.862 350.733 755.965 337.382 770.552C333.297 775.026 329.345 781.361 332.125 786.745C333.825 790.045 337.704 791.772 341.416 791.89C345.128 792.008 348.74 790.785 352.216 789.49C372.58 781.891 391.673 771.244 408.842 757.915" stroke="#171717" stroke-width="3" stroke-linecap="round" stroke-linejoin="round"/>
<path d="M365.906 791.091L362.072 743.855" stroke="#171717" stroke-width="3" stroke-linecap="round" stroke-linejoin="round"/>
<path d="M333.944 761.541C353.077 762.727 371.974 766.395 390.161 772.453" stroke="#171717" stroke-width="3" stroke-linecap="round" stroke-linejoin="round"/>
<path d="M573.329 800.724L577.229 774.07" stroke="#171717" stroke-width="3" stroke-linecap="round" stroke-linejoin="round"/>
<path d="M154.041 759.312C135.455 755.071 116.947 773.176 116.341 792.231C115.735 811.286 128.987 828.656 145.461 838.249C161.935 847.842 181.25 851.077 200.129 853.726C249.638 860.672 299.512 864.75 349.421 867.659C444.976 873.228 540.891 874.519 636.377 867.876C692.304 863.986 748.941 857.147 800.577 835.312C813.831 829.707 827.531 822.319 833.977 809.456C843.1 791.266 833.808 768.176 818.139 755.193C802.47 742.21 781.995 736.933 762.249 732.016" stroke="#171717" stroke-width="3" stroke-linecap="round" stroke-linejoin="round"/>
<path d="M549.367 533.273L559.067 523.031" stroke="#171717" stroke-width="3" stroke-linecap="round" stroke-linejoin="round"/>
<path d="M619.015 574.041L616.1 563.699" stroke="#171717" stroke-width="3" stroke-linecap="round" stroke-linejoin="round"/>
<path d="M693.518 560.77L703.118 553.387" stroke="#171717" stroke-width="3" stroke-linecap="round" stroke-linejoin="round"/>
<path d="M751.668 566.742L748.015 557.131" stroke="#171717" stroke-width="3" stroke-linecap="round" stroke-linejoin="round"/>
<path d="M551.773 602.85L545.867 594.73" stroke="#171717" stroke-width="3" stroke-linecap="round" stroke-linejoin="round"/>
<path d="M499.357 578.489L510.431 568.889" stroke="#171717" stroke-width="3" stroke-linecap="round" stroke-linejoin="round"/>
<path d="M489.063 641.23L486.618 630.949" stroke="#171717" stroke-width="3" stroke-linecap="round" stroke-linejoin="round"/>
<path d="M460.936 600.661L451.893 588.992" stroke="#171717" stroke-width="3" stroke-linecap="round" stroke-linejoin="round"/>
<path d="M399.693 641.979L408.552 632.379" stroke="#171717" stroke-width="3" stroke-linecap="round" stroke-linejoin="round"/>
<path d="M405.6 584.393L401.171 571.104" stroke="#171717" stroke-width="3" stroke-linecap="round" stroke-linejoin="round"/>
<path d="M355.4 608.019L364.259 600.637" stroke="#171717" stroke-width="3" stroke-linecap="round" stroke-linejoin="round"/>
<path d="M370.1 528.929L381.919 520.818" stroke="#171717" stroke-width="3" stroke-linecap="round" stroke-linejoin="round"/>
<path d="M325.129 543.053L319.961 534.932" stroke="#171717" stroke-width="3" stroke-linecap="round" stroke-linejoin="round"/>
<path d="M311.754 593.866L321.38 587.266" stroke="#171717" stroke-width="3" stroke-linecap="round" stroke-linejoin="round"/>
<path d="M282.31 610.97L278.619 599.898" stroke="#171717" stroke-width="3" stroke-linecap="round" stroke-linejoin="round"/>
<path d="M226.061 595.373L231.99 586.529" stroke="#171717" stroke-width="3" stroke-linecap="round" stroke-linejoin="round"/>
<path d="M198.887 584.4L190.028 579.971" stroke="#171717" stroke-width="3" stroke-linecap="round" stroke-linejoin="round"/>
<path fill-rule="evenodd" clip-rule="evenodd" d="M433.647 339.666L433.354 338.924C446.512 333.885 459.333 328.006 471.736 321.322C474.613 319.743 477.436 318.101 480.166 316.406C488.989 310.937 496.789 304.933 501.889 298.648L501.941 298.69C540.702 335.974 500.467 397.251 492.341 407.951C486.129 416.15 487.049 436.032 487.823 444.901L488.283 444.87L526.537 460.795H526.547C527.133 458.149 527.405 456.612 527.405 456.612C527.405 456.612 592.593 437.598 632.545 498.551C632.545 498.551 656.234 467.752 638.517 433.051C631.169 418.657 624.327 410.045 618.415 402.602C610.073 392.102 603.581 383.929 600.123 365.133C599.437 361.404 598.875 356.67 598.229 351.236C593.315 309.867 583.581 227.936 477.789 240.121C373.673 252.112 376.882 294.637 378.508 316.191C378.751 319.414 378.959 322.169 378.767 324.282C378.549 326.687 378.428 329.157 378.304 331.666C377.596 346.1 376.824 361.829 357.118 373.992C356.387 374.443 355.622 374.911 354.827 375.398C330.467 390.316 277.916 422.495 310.518 505.069C352.34 464.072 406.34 461.844 406.34 461.844C406.34 461.844 406.58 462.817 407.072 464.532L445.654 453.958L433.647 339.666ZM571.112 286.047C558.32 263.623 534.723 245.542 508.557 245.952C507.728 245.965 507.067 246.647 507.08 247.475C507.093 248.304 507.775 248.965 508.604 248.952C533.349 248.564 556.072 265.737 568.506 287.533C580.943 309.334 584.705 335.035 586.48 360.395C586.538 361.221 587.254 361.844 588.081 361.786C588.907 361.728 589.53 361.012 589.472 360.185C587.692 334.745 583.902 308.466 571.112 286.047Z" fill="#171717"/>
<path fill-rule="evenodd" clip-rule="evenodd" d="M390.956 784.471C394.721 784.649 454.534 787.441 528.1 784.011C557.446 782.641 588.979 780.277 620.025 776.382C690.484 767.492 758.371 750.602 792.236 719.132C813.133 699.731 821.081 674.766 808.688 642.721C798.49 616.365 782.206 599.82 762 590.648C733.197 577.543 696.435 579.436 658.084 589.204C635.796 594.883 612.965 603.22 590.856 612.82C509.655 648.055 438.087 700.306 438.087 700.306C437.66 700.732 431.587 697.27 421.334 691.426C401.638 680.198 366.519 660.179 326.378 642.041C305.769 632.596 284.628 624.358 263.062 617.369C230.577 607.036 198.229 600.946 170.649 603.846C140.78 606.973 116.484 620.646 103.662 650.846C87.8696 688.027 95.1696 715.272 113.817 735.227C161.435 786.197 283.048 789.627 283.048 789.627L285.648 790.265C291.505 765.719 366.473 740.901 366.473 740.901C410.765 732.042 410.033 772.653 410.033 772.653C410.033 772.653 402.456 777.851 390.956 784.471ZM765.323 608.276C748.807 594.915 727.867 588.26 706.668 589.634C705.841 589.688 705.214 590.401 705.268 591.228C705.321 592.055 706.035 592.682 706.862 592.628C727.309 591.303 747.506 597.721 763.436 610.608C779.367 623.495 789.863 641.906 792.839 662.179C792.959 662.999 793.721 663.566 794.54 663.445C795.36 663.325 795.927 662.563 795.807 661.743C792.722 640.725 781.84 621.637 765.323 608.276Z" fill="#171717"/>
<g opacity="0.1">
<path d="M500.737 298.281C483.152 317.165 460.031 329.986 434.7 334.899C433.77 335.156 432.95 335.71 432.366 336.478C431.781 337.246 431.465 338.184 431.466 339.148C433.575 359.526 437.427 379.748 440.092 400.068C441.406 410.088 442.626 420.122 443.75 430.168C444.902 440.468 446.543 450.942 446.55 461.306C446.56 469.214 459.058 468.027 457.507 459.823C455.547 449.456 455.047 438.706 453.822 428.223C452.671 418.375 451.428 408.539 450.094 398.714C447.357 378.467 444.941 357.851 440.116 337.978L437.038 343.398C463.468 337.394 487.251 323.01 504.843 302.391C507.243 299.579 503.308 295.509 500.733 298.281H500.737Z" fill="#171717"/>
</g>
<g opacity="0.1">
<path d="M405.653 465.143C398.616 463.799 390.753 465.343 383.767 466.575C361.848 470.446 341.125 479.346 323.225 492.575C298.392 511.057 279.922 536.804 270.374 566.25C264.853 582.836 262.227 600.248 262.609 617.724C262.953 628.194 279.267 628.241 278.921 617.724C277.994 589.535 284.749 562.607 299.972 538.666C314.74 515.439 336.423 498.032 361.348 486.716C368.12 483.677 375.133 481.202 382.313 479.316C389.905 477.289 398.275 477.044 405.653 474.551C409.844 473.135 410.718 466.117 405.653 465.151V465.143Z" fill="#171717"/>
</g>
<g opacity="0.1">
<path d="M159.907 558.399C157.78 565.213 160.675 573.899 162.002 580.712C163.431 588.047 164.522 596.712 167.913 603.384C171.344 610.138 181.95 606.793 181.889 599.599C181.826 592.099 178.669 583.868 176.576 576.694C174.643 570.07 173.13 561.263 168.133 556.227C167.518 555.632 166.76 555.207 165.932 554.991C165.105 554.775 164.235 554.777 163.408 554.995C162.581 555.213 161.824 555.641 161.211 556.237C160.598 556.834 160.149 557.578 159.907 558.399V558.399Z" fill="#171717"/>
</g>
<g opacity="0.1">
<path d="M666.341 591.699C670.462 591.071 672.064 587.817 674.05 584.49C676.25 580.807 678.275 576.996 680.292 573.211C684.179 565.914 688.049 558.607 691.901 551.292C695.768 543.986 699.642 536.682 703.524 529.38C707.165 522.521 713.794 514.331 712.406 506.358C711.646 501.998 706.441 501.008 703.106 502.576C698.95 504.532 697.706 508.311 695.728 512.195L689.881 523.704C686.133 531.082 682.383 538.458 678.629 545.833C674.875 553.206 671.055 560.549 667.366 567.954C664.348 574.011 657.8 582.888 661.202 589.609C662.187 591.555 664.402 591.993 666.337 591.699H666.341Z" fill="#171717"/>
</g>
</g>
<defs>
<clipPath id="clip0_583_1230">
<rect width="884" height="866" fill="white" transform="translate(38 47)"/>
</clipPath>
</defs>
</svg>
